<?xml version="1.0" encoding="utf-8"?>
<!-- Generator: Adobe Illustrator 19.2.1, SVG Export Plug-In . SVG Version: 6.00 Build 0)  -->
<svg version="1.1" id="Layer_1" xmlns="http://www.w3.org/2000/svg" xmlns:xlink="http://www.w3.org/1999/xlink" x="0px" y="0px"
	 viewBox="0 0 70 70" style="enable-background:new 0 0 70 70;" xml:space="preserve">
<style type="text/css">
	.st0{fill:none;}
	.st1{fill:none;stroke:#000000;stroke-width:2;stroke-miterlimit:10;}
</style>
<path class="st0" d="M4.5,4.5h61v61h-61V4.5z"/>
<path class="st1" d="M55.3,24.8h-7.1c-1.1-2-2.7-3.7-4.6-5l4.1-4.1l-3.6-3.6l-5.5,5.5c-1.1-0.3-2.4-0.4-3.6-0.4s-2.4,0.2-3.6,0.4
	l-5.5-5.5l-3.6,3.6l4.1,4.1c-1.9,1.3-3.5,3-4.6,5h-7.1v5.1H20c-0.1,0.8-0.2,1.7-0.2,2.5V35h-5.1v5.1h5.1v2.5c0,0.9,0.1,1.7,0.2,2.5
	h-5.3v5.1h7.1c2.6,4.5,7.5,7.6,13.2,7.6s10.6-3.1,13.2-7.6h7.1v-5.1H50c0.1-0.8,0.2-1.7,0.2-2.5v-2.5h5.1V35h-5.1v-2.5
	c0-0.9-0.1-1.7-0.2-2.5h5.3V24.8z M40.1,45.2H29.9v-5.1h10.2V45.2z M40.1,35H29.9v-5.1h10.2V35z"/>
</svg>
