<?xml version="1.0" encoding="utf-8"?>
<!-- Generator: Adobe Illustrator 19.2.1, SVG Export Plug-In . SVG Version: 6.00 Build 0)  -->
<svg version="1.1" id="Layer_1" xmlns="http://www.w3.org/2000/svg" xmlns:xlink="http://www.w3.org/1999/xlink" x="0px" y="0px"
	 viewBox="0 0 70 70" style="enable-background:new 0 0 70 70;" xml:space="preserve">
<style type="text/css">
	.st0{fill:none;stroke:#000000;stroke-width:2.437;stroke-linejoin:round;stroke-miterlimit:10;}
	.st1{fill:none;stroke:#000000;stroke-width:2.437;stroke-linecap:round;stroke-linejoin:round;stroke-miterlimit:10;}
</style>
<rect x="9.8" y="22.6" class="st0" width="25" height="37.4"/>
<rect x="16.1" y="29" class="st0" width="12.6" height="17.6"/>
<line class="st1" x1="16" y1="53.5" x2="19.8" y2="53.5"/>
<line class="st1" x1="24.8" y1="53.5" x2="28.6" y2="53.5"/>
<polyline class="st0" points="9.8,22.6 22.4,9.9 47,9.9 47,29 43.4,32.6 43.4,47.5 34.8,60 "/>
<path class="st0" d="M60.1,53c-1-4.5-5.4-9.6-5.4-9.6s-4.4,5.1-5.4,9.6c-0.1,0.5-0.2,1-0.2,1.5c0,3.1,2.5,5.6,5.6,5.6
	s5.6-2.5,5.6-5.6C60.2,54,60.2,53.5,60.1,53z"/>
</svg>
