<?xml version="1.0" encoding="utf-8"?>
<!-- Generator: Adobe Illustrator 19.2.1, SVG Export Plug-In . SVG Version: 6.00 Build 0)  -->
<svg version="1.1" id="Layer_1" xmlns="http://www.w3.org/2000/svg" xmlns:xlink="http://www.w3.org/1999/xlink" x="0px" y="0px"
	 viewBox="0 0 43.2 38.4" style="enable-background:new 0 0 43.2 38.4;" xml:space="preserve">
<style type="text/css">
	.st0{fill:#510923;}
	.st1{fill:#EAEAEA;}
	.st2{fill:#3A3A3A;}
	.st3{fill:#515151;}
	.st4{opacity:0.3;enable-background:new    ;}
	.st5{fill:#D30E42;}
	.st6{opacity:0.5;enable-background:new    ;}
	.st7{fill:#040705;}
	.st8{fill:none;stroke:#000000;stroke-width:5.4791;stroke-miterlimit:10;}
</style>
<title>cartridge-logo</title>
<polygon class="st0" points="24.6,7.7 24.6,14.3 18.6,17.7 12.6,14.3 "/>
<polygon class="st1" points="23.8,8.8 12.6,15.1 24.6,21.7 35.8,15.5 "/>
<polygon class="st2" points="42.5,24.3 36.5,21 42.5,17.7 "/>
<polygon class="st3" points="24.9,33.3 42,23.9 37.1,21.3 24.6,28.3 "/>
<polyline class="st4" points="24.4,29.7 27.4,31.4 39.4,24.7 36.3,23 24.4,29.7 "/>
<polygon class="st0" points="27.5,30.6 24.4,29 24.4,26.1 27.4,27.9 "/>
<polygon class="st5" points="27.4,27.9 27.4,30.6 39.4,23.9 39.4,21.2 "/>
<polyline class="st5" points="24.4,26.1 27.4,27.9 39.4,21.2 36.3,19.5 24.4,26.1 "/>
<polyline class="st4" points="24.4,26.1 27.4,27.9 39.4,21.2 36.3,19.5 24.4,26.1 "/>
<polygon class="st6" points="27.5,30.6 24.4,29 24.4,26.1 27.4,27.9 "/>
<polygon class="st7" points="28.7,28.4 28.8,28.8 38.5,23.4 38.5,23 "/>
<polygon class="st0" points="0.6,14.3 0.6,21 24.6,34.4 24.6,27.7 "/>
<path class="st0" d="M41.8,19v4.9L25.3,33v-4.9L41.8,19 M42.6,17.7l-18,10v6.7l18-10V17.7L42.6,17.7z"/>
<path class="st0" d="M18.6,4.5l5.5,3.1l-11.6,6.5l-0.4,0.2l0.4,0.2l12,6.7l0.1,0.1l0.1-0.1l11.8-6.6l5.8,3.2v6.4l-17.7,9.9L0.8,20.9
	v-6.4L18.6,4.5 M18.6,4.3l-18,10V21l24,13.4l18-10v-6.7l-6-3.3l-12,6.7l-12-6.7l12-6.7L18.6,4.3L18.6,4.3L18.6,4.3z"/>
<polygon class="st5" points="0.6,14.3 18.6,4.3 24.6,7.7 12.6,14.3 24.6,21 36.5,14.3 42.5,17.7 24.6,27.8 "/>
<path class="st8" d="M19.9,16.8"/>
<polygon class="st5" points="18.8,15.3 18.5,15.1 24.9,11.5 25.3,11.7 "/>
<polygon class="st5" points="20.3,16.1 19.9,15.9 26.4,12.4 26.8,12.6 "/>
<polygon class="st5" points="21.8,17 21.4,16.7 28,13.2 28.4,13.4 "/>
</svg>
