<?xml version="1.0" encoding="utf-8"?>
<!-- Generator: Adobe Illustrator 19.2.1, SVG Export Plug-In . SVG Version: 6.00 Build 0)  -->
<svg version="1.1" id="Layer_1" xmlns="http://www.w3.org/2000/svg" xmlns:xlink="http://www.w3.org/1999/xlink" x="0px" y="0px"
	 viewBox="0 0 70 70" style="enable-background:new 0 0 70 70;" xml:space="preserve">
<g>
	<path d="M34.9,24.9c5.6,0,10.1,4.5,10.1,10.1s-4.5,10.1-10.1,10.1S24.8,40.6,24.8,35S29.3,24.9,34.9,24.9 M34.9,22.8
		c-6.7,0-12.2,5.5-12.2,12.2s5.5,12.2,12.2,12.2S47.1,41.7,47.1,35S41.6,22.8,34.9,22.8L34.9,22.8z"/>
	<path d="M37.1,12l1,5.3c0.1,0.8,0.7,1.4,1.5,1.7c1.1,0.3,2.2,0.8,3.2,1.3c0.3,0.2,0.7,0.3,1,0.3c0.4,0,0.9-0.1,1.2-0.4l4.5-3.1
		l3.3,3.3l-3.1,4.5c-0.5,0.7-0.5,1.5-0.1,2.3c0.5,1,1,2,1.3,3.1c0.2,0.8,0.9,1.4,1.7,1.5l5.3,1v4.6l-5.3,1c-0.8,0.1-1.4,0.7-1.7,1.5
		c-0.3,1.1-0.8,2.2-1.3,3.2c-0.4,0.7-0.3,1.6,0.1,2.3l3,4.5l-3.3,3.3L45,49.9c-0.4-0.3-0.8-0.4-1.2-0.4c-0.4,0-0.7,0.1-1,0.3
		c-1,0.5-2.1,1-3.2,1.3c-0.8,0.2-1.4,0.9-1.5,1.7l-1,5.3h-4.6l-1-5.3c-0.1-0.8-0.7-1.4-1.5-1.7c-1.1-0.3-2.1-0.8-3-1.3
		c-0.3-0.2-0.7-0.3-1-0.3c-0.4,0-0.9,0.1-1.2,0.4l-4.4,3L17,49.6l3-4.4c0.5-0.7,0.5-1.5,0.1-2.3c-0.5-1-1-2-1.3-3.1
		c-0.2-0.8-0.9-1.4-1.7-1.5l-5.3-1v-4.6l5.3-1c0.8-0.1,1.4-0.7,1.7-1.5c0.3-1.1,0.7-2.1,1.3-3.1c0.4-0.7,0.3-1.6-0.1-2.2l-3.1-4.5
		l3.3-3.3l4.4,3c0.4,0.3,0.8,0.4,1.2,0.4c0.4,0,0.7-0.1,1-0.3c1-0.5,2-1,3.1-1.3c0.8-0.2,1.3-0.9,1.5-1.7l1-5.3H37.1 M37.8,9.8h-6.1
		c-0.6,0-1.1,0.5-1.2,1L29.3,17c-1.2,0.4-2.4,0.9-3.5,1.4l-5.1-3.5c-0.2-0.1-0.5-0.2-0.7-0.2c-0.3,0-0.7,0.1-0.9,0.4l-4.3,4.3
		c-0.4,0.4-0.5,1.1-0.1,1.6l3.5,5.1c-0.6,1.1-1.1,2.3-1.4,3.5l-6.1,1.1c-0.6,0.1-1,0.7-1,1.2V38c0,0.6,0.5,1.1,1,1.2l6.1,1.1
		c0.4,1.2,0.9,2.4,1.5,3.5l-3.5,5c-0.3,0.5-0.3,1.2,0.1,1.6l4.3,4.3c0.2,0.2,0.6,0.4,0.9,0.4c0.2,0,0.5-0.1,0.7-0.2l5-3.5
		c1.1,0.6,2.2,1.1,3.4,1.4l1.1,6.1c0.1,0.6,0.7,1,1.2,1h6.1c0.6,0,1.1-0.5,1.2-1l1.1-6c1.2-0.4,2.4-0.9,3.6-1.5l5.1,3.5
		c0.2,0.1,0.5,0.2,0.7,0.2c0.3,0,0.7-0.1,0.9-0.4l4.3-4.3c0.4-0.4,0.5-1.1,0.1-1.6L51.4,44c0.6-1.1,1.1-2.3,1.5-3.6l6.1-1.1
		c0.6-0.1,1-0.7,1-1.2v-6.1c0-0.6-0.5-1.1-1-1.2l-6.1-1.1c-0.4-1.2-0.9-2.4-1.4-3.5l3.5-5.1c0.3-0.5,0.3-1.2-0.1-1.6L50.5,15
		c-0.2-0.2-0.6-0.4-0.9-0.4c-0.2,0-0.5,0.1-0.7,0.2l-5.1,3.5c-1.1-0.6-2.3-1.1-3.6-1.5l-1.1-6C39,10.3,38.4,9.8,37.8,9.8L37.8,9.8z"
		/>
</g>
</svg>
