<?xml version="1.0" encoding="utf-8"?>
<!-- Generator: Adobe Illustrator 19.2.1, SVG Export Plug-In . SVG Version: 6.00 Build 0)  -->
<svg version="1.1" id="Capa_1" xmlns="http://www.w3.org/2000/svg" xmlns:xlink="http://www.w3.org/1999/xlink" x="0px" y="0px"
	 viewBox="0 0 70 70" style="enable-background:new 0 0 70 70;" xml:space="preserve">
<style type="text/css">
	.st0{fill:#262324;}
</style>
<path class="st0" d="M24.3,48.8L23.1,50c-0.5,0.5-0.5,1.4,0,1.9c0.2,0.3,0.5,0.3,0.9,0.3c0.3,0,0.7,0,1-0.3l1.2-1.2
	c0.5-0.5,0.5-1.4,0-1.9S24.9,48.5,24.3,48.8z M21.3,38.9h-1.7c-0.7,0-1.4,0.5-1.4,1.4c0,0.9,0.5,1.4,1.4,1.4h1.7
	c0.7,0,1.4-0.5,1.4-1.4C22.6,39.4,21.9,38.9,21.3,38.9z M35,27.5c0.7,0,1.4-0.5,1.4-1.4v-1.7c0-0.7-0.5-1.4-1.4-1.4
	s-1.4,0.5-1.4,1.4v1.7C33.6,27,34.3,27.5,35,27.5z M25,28.2c-0.5-0.5-1.4-0.5-1.9,0c-0.5,0.5-0.5,1.4,0,1.9l1.2,1.2
	c0.2,0.2,0.5,0.3,0.9,0.3s0.7-0.2,0.9-0.3c0.5-0.5,0.5-1.4,0-1.9L25,28.2z M41,32.2l-5.7,5.5c-0.9-0.2-1.7,0-2.4,0.5
	c-1,1-1,2.6,0,3.6s2.6,1,3.6,0c0.7-0.7,0.9-1.5,0.7-2.4l5.7-5.5c0.5-0.5,0.5-1.4,0-1.9C42.4,31.6,41.5,31.6,41,32.2z M36.4,19.4v-1
	c1.9-0.5,3.4-2.4,3.4-4.5c-0.2-2.4-2.2-4.6-4.8-4.6s-4.6,2.1-4.6,4.6c0,2.1,1.4,4,3.4,4.5v1C23,20.1,14.4,29.1,14.4,39.9
	c0,11.3,9.3,20.6,20.6,20.6s20.6-9.3,20.6-20.6C55.6,29.1,47,20.1,36.4,19.4z M32.9,14.1c0-1.2,0.9-2.1,2.1-2.1s2.1,0.9,2.1,2.1
	c0,1-0.9,2.1-2.1,2.1S32.9,15.1,32.9,14.1z M35,57.9c-10,0-18-8.1-18-18S25,22,35,22s18,8.1,18,18S45,57.9,35,57.9z M35,52.6
	c-0.7,0-1.4,0.5-1.4,1.4v1.7c0,0.7,0.5,1.4,1.4,1.4s1.4-0.5,1.4-1.4V54C36.4,53.1,35.7,52.6,35,52.6z M50.5,38.9h-1.7
	c-0.7,0-1.4,0.5-1.4,1.4c0,0.9,0.5,1.4,1.4,1.4h1.7c0.7,0,1.4-0.5,1.4-1.4C51.8,39.4,51.2,38.9,50.5,38.9z M45,28.2l-1.2,1.2
	c-0.5,0.5-0.5,1.4,0,1.9c0.2,0.2,0.5,0.3,0.9,0.3c0.3,0,0.7-0.2,0.9-0.3l1.2-1.2c0.5-0.5,0.5-1.4,0-1.9C46.3,27.7,45.5,27.7,45,28.2
	z M45.7,48.8c-0.5-0.5-1.4-0.5-1.9,0c-0.5,0.5-0.5,1.4,0,1.9l1.2,1.2c0.3,0.3,0.7,0.3,1,0.3c0.3,0,0.7-0.2,0.9-0.3
	c0.5-0.5,0.5-1.4,0-1.9L45.7,48.8z"/>
</svg>
